<?xml version="1.0" standalone="no"?>
<!DOCTYPE svg PUBLIC "-//W3C//DTD SVG 20010904//EN"
 "http://www.w3.org/TR/2001/REC-SVG-20010904/DTD/svg10.dtd">
<svg version="1.0" xmlns="http://www.w3.org/2000/svg"
 width="260.000000pt" height="260.000000pt" viewBox="0 0 260.000000 260.000000"
 preserveAspectRatio="xMidYMid meet">
<metadata>
Created by potrace 1.11, written by Peter Selinger 2001-2013
</metadata>
<g transform="translate(0.000000,260.000000) scale(0.100000,-0.100000)"
fill="#000000" stroke="none">
<path d="M0 1300 l0 -1300 1300 0 1300 0 0 1300 0 1300 -1300 0 -1300 0 0
-1300z m1827 788 c30 -33 44 -97 46 -209 2 -95 1 -98 -27 -128 -23 -24 -39
-31 -66 -31 -45 0 -74 25 -112 98 -25 47 -31 51 -73 58 -105 15 -194 -23 -299
-130 -134 -136 -244 -315 -286 -470 -29 -105 -26 -239 8 -307 52 -106 138
-162 247 -163 103 -1 171 26 314 121 140 94 165 100 212 54 23 -24 29 -38 29
-74 0 -42 -4 -49 -55 -95 -182 -167 -436 -247 -620 -197 -164 44 -309 202
-346 375 -19 89 -6 269 26 370 102 316 382 646 599 705 51 14 87 17 162 12 83
-5 100 -3 127 14 43 26 88 24 114 -3z"/>
</g>
</svg>
